<svg xmlns="http://www.w3.org/2000/svg" viewBox="0 0 260 620">
<defs><linearGradient id="s1" x2="0" y2="1"><stop stop-color="#2b3652"/><stop offset="1" stop-color="#141b2c"/></linearGradient>
<linearGradient id="s2" x2="0" y2="1"><stop stop-color="#20293c"/><stop offset="1" stop-color="#0f1522"/></linearGradient>
<linearGradient id="flame2" x2="0" y2="1"><stop stop-color="#ffd23f"/><stop offset="1" stop-color="#ff5a3d"/></linearGradient></defs>
<rect x="95" y="10" width="70" height="55" rx="14" fill="#31405c" stroke="#9fc4e8" stroke-width="2"/>
<text x="130" y="42" text-anchor="middle" font-family="sans-serif" font-size="8" fill="#dff0ff">PAYLOAD</text>
<path d="M96 65 L36 30 L60 65 Z" fill="#9fc4e8" opacity=".85"/>
<path d="M164 65 L224 30 L200 65 Z" fill="#9fc4e8" opacity=".85"/>
<path d="M130 65 L165 100 L95 100 Z" fill="#8fa7c0" stroke="#c9d8e8" stroke-width="2"/>
<rect x="95" y="100" width="70" height="120" fill="url(#s2)" stroke="#5b7291" stroke-width="2"/>
<rect x="103" y="112" width="54" height="24" rx="4" fill="#8e49aa" stroke="#e2b7f3"/>
<text x="130" y="128" text-anchor="middle" font-family="sans-serif" font-size="7" fill="white">GUIDANCE</text>
<circle cx="112" cy="150" r="10" fill="#17624d" stroke="#63e3b2"/><text x="112" y="153" text-anchor="middle" font-family="sans-serif" font-size="5" fill="#dfffee">AVX</text>
<circle cx="150" cy="150" r="10" fill="#c94f4f" stroke="#ffb0b0"/><text x="150" y="153" text-anchor="middle" font-family="sans-serif" font-size="5" fill="white">TLM</text>
<rect x="103" y="168" width="24" height="38" rx="3" fill="#3f5b3f" stroke="#a9d6a9"/>
<text x="115" y="190" text-anchor="middle" font-family="sans-serif" font-size="6" fill="#dfffe0">FUEL 2</text>
<rect x="133" y="168" width="24" height="38" rx="3" fill="#3f4f68" stroke="#a9c4e0"/>
<text x="145" y="190" text-anchor="middle" font-family="sans-serif" font-size="5.6" fill="#dfeeff">OX 2</text>
<rect x="103" y="208" width="54" height="12" fill="#5c3f22" stroke="#d3a530"/>
<text x="130" y="217" text-anchor="middle" font-family="sans-serif" font-size="6" fill="#ffe9ad">STAGE-2 ENGINE</text>
<rect x="88" y="220" width="84" height="14" fill="#1a2233" stroke="#8fa7c0" stroke-width="2"/>
<rect x="85" y="234" width="90" height="270" fill="url(#s1)" stroke="#5b7291" stroke-width="2"/>
<rect x="93" y="248" width="36" height="130" rx="4" fill="#3f5b3f" stroke="#a9d6a9"/>
<text x="111" y="316" text-anchor="middle" font-family="sans-serif" font-size="8" fill="#dfffe0">RP-1 FUEL</text>
<rect x="131" y="248" width="36" height="130" rx="4" fill="#3f4f68" stroke="#a9c4e0"/>
<text x="149" y="316" text-anchor="middle" font-family="sans-serif" font-size="7.5" fill="#dfeeff">LOX</text>
<rect x="93" y="386" width="74" height="30" rx="4" fill="#4a3018" stroke="#d3a530"/>
<text x="130" y="405" text-anchor="middle" font-family="sans-serif" font-size="7" fill="#ffe9ad">HEAT SHIELD</text>
<rect x="72" y="60" width="6" height="150" fill="#77879c"/>
<circle cx="130" cy="450" r="34" fill="#463218" stroke="#d3a530" stroke-width="2"/>
<text x="130" y="454" text-anchor="middle" font-family="sans-serif" font-size="8" fill="#ffe9ad">BOOSTER</text>
<path d="M78 500 L130 415 L118 570 Z" fill="#3a4a68" stroke="#9fb4cf" stroke-width="2"/>
<path d="M182 500 L130 415 L142 570 Z" fill="#3a4a68" stroke="#9fb4cf" stroke-width="2"/>
<path d="M104 500 L156 500 L142 605 L118 605 Z" fill="url(#flame2)" opacity="0.92"/>
<text x="130" y="613" text-anchor="middle" fill="#cfe3f4" font-family="sans-serif" font-size="9">TYPICAL TWO-STAGE ORBITAL ROCKET — CUTAWAY</text>
</svg>