<svg xmlns="http://www.w3.org/2000/svg" viewBox="0 0 240 560">
<defs><linearGradient id="body" x2="0" y2="1"><stop stop-color="#2b3652"/><stop offset="1" stop-color="#141b2c"/></linearGradient>
<linearGradient id="flame" x2="0" y2="1"><stop stop-color="#ffd23f"/><stop offset="1" stop-color="#ff6a3d"/></linearGradient></defs>
<path d="M120 8 L155 90 L85 90 Z" fill="#8fa7c0" stroke="#c9d8e8" stroke-width="2"/>
<rect x="85" y="90" width="70" height="360" fill="url(#body)" stroke="#5b7291" stroke-width="2"/>
<rect x="95" y="110" width="50" height="55" rx="6" fill="#17624d" stroke="#63e3b2"/>
<text x="120" y="141" text-anchor="middle" font-family="sans-serif" font-size="8" fill="#d8fff0">AVIONICS</text>
<circle cx="106" cy="185" r="16" fill="#c94f4f" stroke="#ffb0b0"/>
<text x="106" y="188" text-anchor="middle" font-family="sans-serif" font-size="6" fill="white">CHUTE</text>
<circle cx="134" cy="215" r="12" fill="#7a5" stroke="#bfe6a0"/>
<text x="134" y="218" text-anchor="middle" font-family="sans-serif" font-size="5.5" fill="#0a1a05">STREAM</text>
<rect x="98" y="245" width="44" height="70" rx="5" fill="#20293c" stroke="#7189a8"/>
<text x="120" y="284" text-anchor="middle" font-family="sans-serif" font-size="8" fill="#9fc4e8">PAYLOAD</text>
<rect x="6" y="330" width="7" height="90" fill="#8fa7c0"/>
<rect x="85" y="330" width="70" height="120" fill="#1b2436" stroke="#5b7291" stroke-width="2"/>
<circle cx="120" cy="390" r="26" fill="#463218" stroke="#d3a530" stroke-width="2"/>
<text x="120" y="394" text-anchor="middle" font-family="sans-serif" font-size="8" fill="#ffe9ad">MOTOR</text>
<rect x="112" y="450" width="16" height="20" fill="#555"/>
<path d="M75 500 L120 445 L112 540 Z" fill="#3a4a68" stroke="#9fb4cf" stroke-width="2"/>
<path d="M165 500 L120 445 L128 540 Z" fill="#3a4a68" stroke="#9fb4cf" stroke-width="2"/>
<path d="M100 480 L140 480 L130 550 L110 550 Z" fill="url(#flame)" opacity="0.9"/>
<text x="120" y="545" text-anchor="middle" fill="#cfe3f4" font-family="sans-serif" font-size="9">TYPICAL SOUNDING ROCKET — CUTAWAY VIEW</text>
</svg>