<svg xmlns="http://www.w3.org/2000/svg" viewBox="0 0 280 540">
<defs><linearGradient id="p" x2="0" y2="1"><stop stop-color="#263248"/><stop offset="1" stop-color="#101827"/></linearGradient><linearGradient id="b" x2="0" y2="1"><stop stop-color="#436b82"/><stop offset="1" stop-color="#203b4b"/></linearGradient></defs>
<!-- Typical smartphone, rear cover removed -->
<rect x="12" y="8" width="256" height="524" rx="35" fill="#101624" stroke="#58708d" stroke-width="3"/>
<rect x="22" y="20" width="236" height="500" rx="27" fill="url(#p)" stroke="#263b55"/>
<!-- camera block top left --> <rect x="28" y="48" width="64" height="72" rx="12" fill="#1c2433" stroke="#94a9bf"/><circle cx="50" cy="69" r="13" fill="#070c14" stroke="#8fa7c0"/><circle cx="73" cy="69" r="13" fill="#070c14" stroke="#8fa7c0"/><circle cx="50" cy="96" r="13" fill="#070c14" stroke="#8fa7c0"/>
<!-- upper mainboard --> <path d="M104 38 h104 v120 h-28 v28 h-76z" fill="#17624d" stroke="#61e3b2" stroke-width="2"/><rect x="120" y="69" width="34" height="32" rx="3" fill="#d1a530"/><text x="137" y="89" text-anchor="middle" font-family="sans-serif" font-size="8" fill="#29200b">CPU</text><rect x="160" y="69" width="28" height="25" rx="3" fill="#8f99a6"/><text x="174" y="85" text-anchor="middle" font-family="sans-serif" font-size="7" fill="#111">RAM</text><rect x="158" y="105" width="31" height="19" rx="2" fill="#67717d"/><text x="173" y="118" text-anchor="middle" font-family="sans-serif" font-size="6" fill="white">STORAGE</text>
<!-- battery --> <rect x="43" y="170" width="194" height="225" rx="13" fill="url(#b)" stroke="#85bdd6" stroke-width="2"/><text x="140" y="285" text-anchor="middle" font-family="sans-serif" font-size="15" font-weight="bold" fill="#d8f4ff">BATTERY</text><text x="140" y="304" text-anchor="middle" font-family="sans-serif" font-size="9" fill="#c1dfeb">Li-ion power cell</text>
<!-- bottom modules --><rect x="94" y="475" width="94" height="18" rx="5" fill="#131b27" stroke="#7a91a9"/><rect x="112" y="510" width="56" height="8" rx="4" fill="#070b11"/><circle cx="204" cy="483" r="8" fill="#26384a"/><rect x="55" y="410" width="30" height="22" rx="7" fill="#8551bb"/><rect x="18" y="240" width="8" height="40" rx="2" fill="#b6c2d0"/><rect x="255" y="215" width="7" height="50" rx="3" fill="#b6c2d0"/>
<!-- heading --> <text x="140" y="34" text-anchor="middle" fill="#eaf5ff" font-family="sans-serif" font-size="9">TYPICAL SMARTPHONE — REAR COVER REMOVED</text>
</svg>