<svg xmlns="http://www.w3.org/2000/svg" viewBox="0 0 400 400" width="100%" height="100%">
  <!-- Central Body -->
  <rect x="150" y="120" width="100" height="160" fill="#d0d5db" stroke="#999" stroke-width="3" rx="30" />
  <!-- Arms -->
  <g fill="#a0a5ab" stroke="#777" stroke-width="2">
    <!-- Front Left -->
    <path d="M 160,150 L 70,100 L 60,115 L 150,170 Z" />
    <!-- Front Right -->
    <path d="M 240,150 L 330,100 L 340,115 L 250,170 Z" />
    <!-- Back Left -->
    <path d="M 160,250 L 80,320 L 95,335 L 170,270 Z" />
    <!-- Back Right -->
    <path d="M 240,250 L 320,320 L 305,335 L 230,270 Z" />
  </g>
  <!-- Motors -->
  <g fill="#bbb" stroke="#888" stroke-width="2">
    <circle cx="65" cy="110" r="16" />
    <circle cx="335" cy="110" r="16" />
    <circle cx="85" cy="325" r="16" />
    <circle cx="315" cy="325" r="16" />
  </g>
  <!-- Gimbal/Camera -->
  <circle cx="200" cy="110" r="22" fill="#111" stroke="#333" />
  <circle cx="200" cy="110" r="10" fill="#1e3d59" />
  <!-- Battery Area -->
  <rect x="165" y="190" width="70" height="70" fill="#444" rx="10" />
  <!-- Power button -->
  <circle cx="200" cy="225" r="8" fill="#39ff8f" opacity="0.8"/>
</svg>