<svg xmlns="http://www.w3.org/2000/svg" viewBox="0 0 400 400" width="100%" height="100%">
  <!-- Carbon Frame X -->
  <g fill="#2a2a2a" stroke="#111" stroke-width="2">
    <path d="M 180,180 L 80,80 L 100,60 L 190,160 Z" />
    <path d="M 220,180 L 320,80 L 300,60 L 210,160 Z" />
    <path d="M 180,220 L 80,320 L 100,340 L 190,240 Z" />
    <path d="M 220,220 L 320,320 L 300,340 L 210,240 Z" />
    <rect x="160" y="140" width="80" height="120" rx="10" />
  </g>
  <!-- Motors -->
  <g fill="#444" stroke="#777" stroke-width="2">
    <circle cx="90" cy="70" r="18" />
    <circle cx="310" cy="70" r="18" />
    <circle cx="90" cy="330" r="18" />
    <circle cx="310" cy="330" r="18" />
  </g>
  <!-- FC Stack -->
  <rect x="175" y="175" width="50" height="50" fill="#1b2a47" stroke="#39ff8f" stroke-width="2" rx="5" />
  <circle cx="200" cy="200" r="10" fill="#39ff8f" opacity="0.3"/>
  <!-- Camera Mount front -->
  <path d="M 175,140 L 225,140 L 215,110 L 185,110 Z" fill="#b31237" />
  <!-- Battery Pad -->
  <rect x="175" y="235" width="50" height="60" fill="#111" stroke="#333" stroke-width="1" rx="4" />
</svg>